<?xml version="1.0" encoding="UTF-8"?>
<svg version="1.1" xmlns="http://www.w3.org/2000/svg" width="512" height="512">
<path d="M0 0 C1.01790619 0.00215515 2.03581238 0.0043103 3.08456421 0.00653076 C17.69363523 0.05620146 32.02575853 0.30709809 46.375 3.3125 C47.34985352 3.51117676 48.32470703 3.70985352 49.32910156 3.91455078 C88.37782454 12.08284366 124.83813271 27.70153311 156.375 52.3125 C157.27089844 52.99699219 158.16679687 53.68148437 159.08984375 54.38671875 C165.85375932 59.65466563 172.17242313 65.40219115 178.375 71.3125 C178.97538086 71.88419922 179.57576172 72.45589844 180.19433594 73.04492188 C188.53034882 81.04095281 196.17384608 89.25373428 203.05566406 98.53564453 C204.41568182 100.36728947 205.79649374 102.18190483 207.1796875 103.99609375 C213.5480373 112.42343333 219.17969786 121.11991515 224.375 130.3125 C224.73803223 130.94285156 225.10106445 131.57320312 225.47509766 132.22265625 C247.08503355 169.97093421 256.85198837 212.73995161 256.6875 255.9375 C256.68534485 256.95540619 256.6831897 257.97331238 256.68096924 259.02206421 C256.63129854 273.63113523 256.38040191 287.96325853 253.375 302.3125 C253.07698486 303.77478027 253.07698486 303.77478027 252.77294922 305.26660156 C244.60465634 344.31532454 228.98596689 380.77563271 204.375 412.3125 C203.69050781 413.20839844 203.00601562 414.10429687 202.30078125 415.02734375 C197.03283437 421.79125932 191.28530885 428.10992313 185.375 434.3125 C184.51745117 435.21307129 184.51745117 435.21307129 183.64257812 436.13183594 C175.6343274 444.48058817 167.41011118 452.12586051 158.11230469 459.01513672 C156.39124144 460.30037142 154.698612 461.6167016 153.0078125 462.94140625 C122.05599233 486.84699932 84.66878791 502.15926624 46.375 509.3125 C45.56998047 509.47476074 44.76496094 509.63702148 43.93554688 509.80419922 C13.88950647 515.6788185 -20.75595352 514.58629779 -50.625 508.3125 C-52.14794678 507.99901611 -52.14794678 507.99901611 -53.70166016 507.67919922 C-90.93790584 499.76731191 -125.56559467 483.59756002 -155.625 460.3125 C-156.97271484 459.28382813 -156.97271484 459.28382813 -158.34765625 458.234375 C-165.10647392 452.96442525 -171.42437048 447.22095326 -177.625 441.3125 C-178.22538086 440.74080078 -178.82576172 440.16910156 -179.44433594 439.58007812 C-187.79308817 431.5718274 -195.43836051 423.34761118 -202.32763672 414.04980469 C-203.61287142 412.32874144 -204.9292016 410.636112 -206.25390625 408.9453125 C-230.15949932 377.99349233 -245.47176624 340.60628791 -252.625 302.3125 C-252.78726074 301.50748047 -252.94952148 300.70246094 -253.11669922 299.87304688 C-258.58955505 271.88184616 -258.4709259 238.22377604 -252.625 210.3125 C-252.42632324 209.33764648 -252.22764648 208.36279297 -252.02294922 207.35839844 C-241.7272891 158.1397446 -219.29081567 114.71000304 -184.625 78.3125 C-184.05475098 77.71356934 -183.48450195 77.11463867 -182.89697266 76.49755859 C-174.89943802 68.16006957 -166.68545927 60.51490955 -157.40185547 53.63183594 C-155.57021053 52.27181818 -153.75559517 50.89100626 -151.94140625 49.5078125 C-143.51406667 43.1394627 -134.81758485 37.50780214 -125.625 32.3125 C-124.99464844 31.94946777 -124.36429688 31.58643555 -123.71484375 31.21240234 C-85.96656579 9.60246645 -43.19754839 -0.16448837 0 0 Z " fill="#FEC006" transform="translate(255.625,-0.3125)"/>
<path d="M0 0 C3.49406769 1.66762322 4.82670681 2.74006022 7 6 C7.52629708 12.42784163 6.21330494 17.64354933 4.3125 23.75 C3.75366248 25.61894246 3.19773968 27.4887586 2.64453125 29.359375 C2.36561035 30.30103516 2.08668945 31.24269531 1.79931641 32.21289062 C0.58476173 36.44788028 -0.46289882 40.71871002 -1.5 45 C-3.39650229 52.7760425 -5.53339943 60.4599564 -7.76953125 68.14453125 C-9.48047899 74.06704267 -11.03784316 80.01152953 -12.5 86 C-14.23834808 93.10378556 -16.11646832 100.15514716 -18.125 107.1875 C-18.36669922 108.03634766 -18.60839844 108.88519531 -18.85742188 109.75976562 C-20.43372957 115.2228594 -22.18692065 120.61130028 -24 126 C-22.92116043 125.98889694 -21.84232086 125.97779388 -20.73078918 125.96635437 C-10.56358436 125.86499452 -0.39648205 125.79004231 9.7711134 125.74093914 C14.99842067 125.71484585 20.22532006 125.67945232 25.45239258 125.62280273 C30.49689555 125.56847395 35.54100623 125.53857745 40.58577919 125.52561378 C42.51035043 125.51637549 44.43490021 125.49833505 46.35930443 125.47134972 C49.05535643 125.43504754 51.74978782 125.43005508 54.44604492 125.43237305 C55.24158279 125.41439667 56.03712067 125.39642029 56.85676575 125.37789917 C60.94288848 125.41590845 62.75547026 125.80167934 65.97212219 128.41047668 C68.93279588 132.19114508 69.46231958 134.18609738 69 139 C67.375 141.91015625 67.375 141.91015625 65 145.0625 C64.34209473 145.94772339 64.34209473 145.94772339 63.67089844 146.85083008 C62.1299756 148.91316308 60.56630023 150.95688079 59 153 C57.75482017 154.63772578 56.51004845 156.27576191 55.265625 157.9140625 C53.23834441 160.57895957 51.20845906 163.24173265 49.17236328 165.89990234 C44.67044097 171.77989963 40.24577489 177.70953156 35.875 183.6875 C30.78853544 190.63856978 25.560024 197.46032555 20.24511719 204.23779297 C15.50803183 210.29835928 10.93682511 216.46935489 6.39501953 222.67700195 C1.28920435 229.64225469 -3.93388662 236.51371788 -9.17919922 243.37426758 C-13.14591727 248.56347261 -17.09064358 253.76745621 -21 259 C-26.25494707 266.03357221 -31.58368862 273.00944572 -36.91772461 279.9831543 C-42.11148358 286.79106366 -47.20791211 293.66597583 -52.22021484 300.60864258 C-54.91660606 304.311747 -57.68644371 307.94022753 -60.61328125 311.46484375 C-61.15122314 312.11445068 -61.68916504 312.76405762 -62.2434082 313.43334961 C-64.88898187 315.79285569 -67.43749646 316.2175767 -70.9140625 316.3125 C-74.183438 315.82270592 -75.8417876 314.42798896 -78 312 C-80.52489149 304.42532554 -78.04083602 297.59778257 -75.9375 290.1875 C-75.29013033 287.84772105 -74.64300158 285.50787543 -73.99609375 283.16796875 C-73.66335449 281.97606934 -73.33061523 280.78416992 -72.98779297 279.55615234 C-71.45741938 274.04665613 -69.97989316 268.52322523 -68.5 263 C-67.9169531 260.83325624 -67.33361892 258.66658976 -66.75 256.5 C-66.46125 255.4275 -66.1725 254.355 -65.875 253.25 C-65 250 -64.125 246.75 -63.25 243.5 C-62.96092773 242.4260498 -62.67185547 241.35209961 -62.37402344 240.24560547 C-61.79445962 238.09344867 -61.21438703 235.94142882 -60.63378906 233.78955078 C-59.11343802 228.15193861 -57.60374841 222.51174579 -56.109375 216.8671875 C-55.79806641 215.69671875 -55.48675781 214.52625 -55.16601562 213.3203125 C-54.57287999 211.08941429 -53.9828342 208.85769133 -53.39648438 206.625 C-53.12642578 205.61179687 -52.85636719 204.59859375 -52.578125 203.5546875 C-52.34512695 202.67280762 -52.11212891 201.79092773 -51.87207031 200.88232422 C-51.14474165 198.47839302 -50.33354015 196.1665939 -49.44549561 193.81985474 C-49.03964296 192.74511744 -49.03964296 192.74511744 -48.62559128 191.64866829 C-48.41914616 191.10460775 -48.21270103 190.56054722 -48 190 C-49.07883957 190.01110306 -50.15767914 190.02220612 -51.26921082 190.03364563 C-61.43641564 190.13500548 -71.60351795 190.20995769 -81.7711134 190.25906086 C-86.99842067 190.28515415 -92.22532006 190.32054768 -97.45239258 190.37719727 C-102.49689555 190.43152605 -107.54100623 190.46142255 -112.58577919 190.47438622 C-114.51035043 190.48362451 -116.43490021 190.50166495 -118.35930443 190.52865028 C-121.05535643 190.56495246 -123.74978782 190.56994492 -126.44604492 190.56762695 C-127.63935173 190.59459152 -127.63935173 190.59459152 -128.85676575 190.62210083 C-132.94288848 190.58409155 -134.75547026 190.19832066 -137.97212219 187.58952332 C-140.93279588 183.80885492 -141.46231958 181.81390262 -141 177 C-139.375 174.08984375 -139.375 174.08984375 -137 170.9375 C-136.56139648 170.34735107 -136.12279297 169.75720215 -135.67089844 169.14916992 C-134.1299756 167.08683692 -132.56630023 165.04311921 -131 163 C-129.75482017 161.36227422 -128.51004845 159.72423809 -127.265625 158.0859375 C-125.24115366 155.4247976 -123.21416393 152.76570674 -121.18115234 150.11108398 C-116.59598428 144.12151307 -112.08384602 138.084096 -107.625 132 C-102.65428255 125.22193685 -97.59840192 118.52696721 -92.45214844 111.88085938 C-83.59704888 100.41151052 -74.85815538 88.86050838 -66.29443359 77.17211914 C-61.21855259 70.2598071 -56.02883864 63.43767298 -50.8203125 56.625 C-46.85368104 51.43609256 -42.90938468 46.23215918 -39 41 C-34.26171522 34.66261583 -29.48238432 28.35716415 -24.6875 22.0625 C-24.02943359 21.19818359 -23.37136719 20.33386719 -22.69335938 19.44335938 C-21.42076287 17.77444364 -20.14591361 16.10724292 -18.86865234 14.44189453 C-17.60630831 12.79230411 -16.35159444 11.13685081 -15.10400391 9.47607422 C-14.49862793 8.67830566 -13.89325195 7.88053711 -13.26953125 7.05859375 C-12.73561768 6.34888428 -12.2017041 5.6391748 -11.65161133 4.90795898 C-8.06629598 0.76616453 -5.54531059 -0.67901762 0 0 Z " fill="#FEFEFD" transform="translate(292,98)"/>
</svg>
