<?xml version="1.0" encoding="UTF-8"?>
<svg version="1.1" xmlns="http://www.w3.org/2000/svg" width="512" height="512">
<path d="M0 0 C0.96988861 0.00182281 1.93977722 0.00364563 2.9390564 0.00552368 C17.29056055 0.05091691 31.25442918 0.5562653 45.375 3.3125 C46.72053955 3.55395752 46.72053955 3.55395752 48.09326172 3.80029297 C85.73430502 10.61140475 121.90626795 26.14986414 152.375 49.3125 C153.23834961 49.9617041 153.23834961 49.9617041 154.11914062 50.62402344 C163.02827492 57.34762038 171.34137958 64.56829251 179.375 72.3125 C179.93106934 72.84665527 180.48713867 73.38081055 181.06005859 73.93115234 C188.37560862 80.99480395 195.15633366 88.24618236 201.375 96.3125 C202.05296631 97.17584961 202.05296631 97.17584961 202.74462891 98.05664062 C210.79879923 108.32940544 217.88177799 118.99092292 224.375 130.3125 C224.80022949 131.04774902 225.22545898 131.78299805 225.66357422 132.54052734 C247.13862923 170.09916834 256.85543056 212.94221548 256.6875 255.9375 C256.68476578 257.39233292 256.68476578 257.39233292 256.68197632 258.8765564 C256.63658309 273.22806055 256.1312347 287.19192918 253.375 301.3125 C253.21402832 302.20952637 253.05305664 303.10655273 252.88720703 304.03076172 C246.05230605 341.80327406 230.43419291 377.66401155 207.375 408.3125 C206.9109375 408.93350586 206.446875 409.55451172 205.96875 410.19433594 C199.29740411 419.06893171 192.07754293 427.32210121 184.375 435.3125 C183.84084473 435.86856934 183.30668945 436.42463867 182.75634766 436.99755859 C175.69269605 444.31310862 168.44131764 451.09383366 160.375 457.3125 C159.79943359 457.76447754 159.22386719 458.21645508 158.63085938 458.68212891 C148.35780798 466.73652392 137.68646251 473.8022697 126.375 480.3125 C125.69920898 480.7053418 125.02341797 481.09818359 124.32714844 481.50292969 C98.40732615 496.41413692 68.91384522 505.9736713 39.375 510.3125 C38.17037109 510.48982666 36.96574219 510.66715332 35.72460938 510.84985352 C24.06732646 512.448825 12.50313902 512.6709053 0.75 512.625 C-0.70483292 512.62226578 -0.70483292 512.62226578 -2.1890564 512.61947632 C-16.54056055 512.57408309 -30.50442918 512.0687347 -44.625 509.3125 C-45.52202637 509.15152832 -46.41905273 508.99055664 -47.34326172 508.82470703 C-96.03093124 500.01471851 -141.05505908 476.57143453 -176.625 442.3125 C-177.28435547 441.68037598 -177.94371094 441.04825195 -178.62304688 440.39697266 C-188.11130305 431.25252521 -196.8512044 421.95515991 -204.625 411.3125 C-205.48306152 410.16144983 -206.34113451 409.01040823 -207.19921875 407.859375 C-213.23736829 399.66819386 -218.59595521 391.15445895 -223.625 382.3125 C-223.98948242 381.68069824 -224.35396484 381.04889648 -224.72949219 380.39794922 C-243.79650596 347.08536867 -255.62622098 307.0024843 -255.828125 268.51953125 C-255.83513931 267.61899017 -255.84215363 266.7184491 -255.84938049 265.7906189 C-255.86677902 262.90202774 -255.8732324 260.01364163 -255.875 257.125 C-255.87567474 256.13762848 -255.87634949 255.15025696 -255.87704468 254.13296509 C-255.86129657 239.64161736 -255.40841075 225.57229749 -252.625 211.3125 C-252.38354248 209.96696045 -252.38354248 209.96696045 -252.13720703 208.59423828 C-244.24694853 164.98938031 -224.55735057 123.85259529 -195.625 90.3125 C-194.99078125 89.56742187 -194.3565625 88.82234375 -193.703125 88.0546875 C-181.89198485 74.54970167 -169.14139772 61.87831257 -154.625 51.3125 C-153.47505169 50.45600934 -152.32531411 49.59923567 -151.17578125 48.7421875 C-142.98410544 42.70101336 -134.476615 37.32954944 -125.625 32.3125 C-124.58811035 31.71719482 -124.58811035 31.71719482 -123.53027344 31.10986328 C-85.83140261 9.65639751 -43.12810659 -0.16844934 0 0 Z " fill="#BEDBFF" transform="translate(255.625,-0.3125)"/>
<path d="M0 0 C2.38168274 0.1483834 4.76313118 0.2995914 7.14453125 0.45239258 C7.81230591 0.49370552 8.48008057 0.53501846 9.16809082 0.57758331 C14.85294363 0.94592926 20.39835318 1.67436548 26 2.6875 C26.97074463 2.86192627 27.94148926 3.03635254 28.94165039 3.21606445 C67.3816427 10.38389226 103.7446446 25.39299287 135 49 C135.8677002 49.65137939 135.8677002 49.65137939 136.75292969 50.31591797 C145.65858244 57.03813849 153.96901603 64.25833397 162 72 C162.55606934 72.53415527 163.11213867 73.06831055 163.68505859 73.61865234 C171.00060862 80.68230395 177.78133366 87.93368236 184 96 C184.45197754 96.57556641 184.90395508 97.15113281 185.36962891 97.74414062 C193.42379923 108.01690544 200.50677799 118.67842292 207 130 C207.42522949 130.73524902 207.85045898 131.47049805 208.28857422 132.22802734 C229.76362923 169.78666834 239.48043056 212.62971548 239.3125 255.625 C239.31067719 256.59488861 239.30885437 257.56477722 239.30697632 258.5640564 C239.26158309 272.91556055 238.7562347 286.87942918 236 301 C235.83902832 301.89702637 235.67805664 302.79405273 235.51220703 303.71826172 C228.67730605 341.49077406 213.05919291 377.35151155 190 408 C189.5359375 408.62100586 189.071875 409.24201172 188.59375 409.88183594 C181.92240411 418.75643171 174.70254293 427.00960121 167 435 C166.46584473 435.55606934 165.93168945 436.11213867 165.38134766 436.68505859 C158.31769605 444.00060862 151.06631764 450.78133366 143 457 C142.42443359 457.45197754 141.84886719 457.90395508 141.25585938 458.36962891 C130.98280798 466.42402392 120.31146251 473.4897697 109 480 C108.32420898 480.3928418 107.64841797 480.78568359 106.95214844 481.19042969 C75.8576073 499.07855953 36.26157395 512.29468345 0 512 C-0.84285536 485.75684771 -1.14792374 459.5414932 -1.13072467 433.28580666 C-1.12841416 428.03961697 -1.13197758 422.79343026 -1.13470459 417.54724121 C-1.13910218 407.32742738 -1.13821296 397.10762099 -1.13529195 386.88780689 C-1.13301395 378.5661952 -1.13273565 370.24458555 -1.13381577 361.92297363 C-1.133969 360.72903622 -1.13412223 359.53509881 -1.13428011 358.30498147 C-1.1345999 355.87792555 -1.13492412 353.45086964 -1.1352527 351.02381372 C-1.13808988 328.37770542 -1.13484829 305.7316012 -1.12945233 283.08549356 C-1.12498591 263.74319159 -1.12576234 244.40089562 -1.13037109 225.05859375 C-1.13574818 202.48181434 -1.13781535 179.90503848 -1.13475883 157.32825851 C-1.13444035 154.91118113 -1.13412598 152.49410375 -1.13381577 150.07702637 C-1.13366149 148.88843088 -1.13350721 147.6998354 -1.13334826 146.47522187 C-1.13249247 138.18404189 -1.13392554 129.8928642 -1.13629532 121.60168457 C-1.13912856 111.46829414 -1.13828198 101.33491144 -1.13301457 91.20152187 C-1.13042437 86.0523683 -1.12929072 80.90322751 -1.13266373 75.7540741 C-1.14789829 50.48599576 -0.81114111 25.2556971 0 0 Z " fill="#8ABFFF" transform="translate(273,0)"/>
<path d="M0 0 C31.35 0 62.7 0 95 0 C95.99 16.83 95.99 16.83 97 34 C97.82137069 40.92263741 98.68472748 47.75866286 99.8125 54.625 C100.07926839 56.31769939 100.3454512 58.01049117 100.61108398 59.70336914 C103.30537352 76.64982585 106.21149753 93.57767459 111.56469727 109.91772461 C113.10053533 114.69839402 113.10053533 114.69839402 112 118 C109.61801955 119.24144295 107.27726291 120.32295015 104.8125 121.375 C97.31464889 124.72687488 90.24326605 128.61307083 83.1875 132.8125 C82.23915283 133.37565918 81.29080566 133.93881836 80.3137207 134.51904297 C75.44722922 137.41130149 75.44722922 137.41130149 70.83642578 140.68286133 C69 142 69 142 67.01171875 141.9296875 C58.79452581 138.13222746 52.44686893 127.94618128 47 121 C46.28070313 120.09765625 45.56140625 119.1953125 44.8203125 118.265625 C38.12121446 109.63547023 32.50912604 100.419782 27 91 C26.44481689 90.06679932 26.44481689 90.06679932 25.87841797 89.11474609 C9.9906336 62.20187018 2.80112694 30.81239638 0 0 Z " fill="#8BC0FF" transform="translate(34,273)"/>
<path d="M0 0 C3.18358852 0.50458343 5.5185932 1.75796339 8.23828125 3.44140625 C9.45789551 4.18777344 9.45789551 4.18777344 10.70214844 4.94921875 C11.99427246 5.74779297 11.99427246 5.74779297 13.3125 6.5625 C24.28990559 13.25166989 35.49283274 19.27154119 47 25 C46.72905518 25.97549805 46.72905518 25.97549805 46.45263672 26.97070312 C39.75194406 51.335319 34.83295096 75.87168612 31.6875 100.9375 C31.44833862 102.79785889 31.44833862 102.79785889 31.2043457 104.69580078 C29.73841825 117.17841969 29.50711766 129.32205857 29 142 C-2.35 142 -33.7 142 -66 142 C-61.01156405 87.1272046 -39.03446762 39.03446762 0 0 Z " fill="#8BC0FF" transform="translate(100,97)"/>
<path d="M0 0 C31.02 0 62.04 0 94 0 C89.3895795 50.71462551 70.06891369 96.69248852 35.5625 134.3125 C34.97130371 134.96516846 34.38010742 135.61783691 33.77099609 136.2902832 C32.92722412 137.19266724 32.92722412 137.19266724 32.06640625 138.11328125 C31.57084229 138.64735596 31.07527832 139.18143066 30.56469727 139.73168945 C28.6960145 141.24640422 27.38354918 141.72374038 25 142 C22.3203125 140.55078125 22.3203125 140.55078125 19.125 138.3125 C12.82813781 134.04190704 6.31518709 130.3076706 -0.375 126.6875 C-1.3016748 126.18452393 -2.22834961 125.68154785 -3.18310547 125.16333008 C-8.40991972 122.34502356 -13.67386735 119.62564619 -19 117 C-18.82122314 116.38261963 -18.64244629 115.76523926 -18.45825195 115.12915039 C-7.6511505 77.4043989 -3.3455716 39.03166866 0 0 Z " fill="#3897FF" transform="translate(384,273)"/>
<path d="M0 0 C8.10280576 3.08078627 14.75379325 14.13088796 19.93212891 20.73461914 C21.01107422 22.08813477 21.01107422 22.08813477 22.11181641 23.46899414 C28.80978212 32.09769018 34.43192905 41.3111261 39.93212891 50.73461914 C40.30225098 51.36207031 40.67237305 51.98952148 41.05371094 52.63598633 C50.66052102 69.08544674 57.13613245 87.18953271 61.453125 105.69506836 C61.88837952 107.54833863 62.35575882 109.39399046 62.82666016 111.23852539 C65.30664219 121.19510349 66.93212891 131.46255176 66.93212891 141.73461914 C35.91212891 141.73461914 4.89212891 141.73461914 -27.06787109 141.73461914 C-28.55287109 124.90461914 -28.55287109 124.90461914 -30.06787109 107.73461914 C-30.77537761 101.59035986 -31.49581228 95.47618842 -32.38037109 89.35961914 C-32.48325439 88.63098663 -32.5861377 87.90235413 -32.69213867 87.15164185 C-35.6926052 66.02562464 -40.34755859 45.28724637 -46.06787109 24.73461914 C-44.70082031 24.07719727 -44.70082031 24.07719727 -43.30615234 23.40649414 C-35.05149902 19.38471878 -26.98412876 15.0927382 -19.00537109 10.54711914 C-18.12598877 10.04857422 -17.24660645 9.5500293 -16.34057617 9.03637695 C-12.45052756 6.80118628 -8.75226665 4.54942909 -5.19677734 1.80883789 C-2.06787109 -0.26538086 -2.06787109 -0.26538086 0 0 Z " fill="#3897FF" transform="translate(411.06787109375,97.265380859375)"/>
<path d="M0 0 C2.2178542 6.88950454 4.28093455 13.79824233 6.0625 20.8125 C6.51302734 22.58560547 6.51302734 22.58560547 6.97265625 24.39453125 C9.96765407 37.36980679 11.83587084 50.42863591 13.36254883 63.64477539 C13.6868559 66.43196446 14.02758075 69.21683227 14.36914062 72.00195312 C14.58433526 73.83321587 14.79855984 75.66459293 15.01171875 77.49609375 C15.11167648 78.29873154 15.21163422 79.10136932 15.31462097 79.92832947 C16.26243864 88.39767177 16 96.29305536 16 105 C-9.41 105 -34.82 105 -61 105 C-61 73.65 -61 42.3 -61 10 C-51.1 8.68 -41.2 7.36 -31 6 C-24.24076144 4.61557764 -17.57779684 3.24103403 -10.92871094 1.43847656 C-7.19965867 0.44835489 -3.86432791 -0.24152049 0 0 Z " fill="#3897FF" transform="translate(334,134)"/>
<path d="M0 0 C25.41 0 50.82 0 77 0 C77 35.34306899 71.39524648 71.24059134 61 105 C55.49855056 104.60703933 50.5087462 103.64498419 45.1875 102.1875 C30.4808138 98.24247159 15.07598758 96.88449845 0 95 C0 63.65 0 32.3 0 0 Z " fill="#3897FF" transform="translate(273,273)"/>
<path d="M0 0 C25.41 0 50.82 0 77 0 C77 31.35 77 62.7 77 95 C61.16 96.98 61.16 96.98 45 99 C37.61647203 100.4854435 30.47439967 101.95512271 23.28515625 104.1171875 C20 105 20 105 16 105 C5.46167065 70.78867031 0 35.82774236 0 0 Z " fill="#8BC0FF" transform="translate(162,273)"/>
<path d="M0 0 C5.00425823 0.48212177 9.82262331 1.05402618 14.6875 2.375 C16.23630859 2.77332031 16.23630859 2.77332031 17.81640625 3.1796875 C18.86699219 3.45039063 19.91757813 3.72109375 21 4 C34.25461106 7.3878716 47.22684017 8.41078925 61 10 C61 41.35 61 72.7 61 105 C35.59 105 10.18 105 -16 105 C-16 91.49429387 -16 91.49429387 -15.4140625 85.64453125 C-15.22674561 83.73522827 -15.22674561 83.73522827 -15.03564453 81.78735352 C-14.83237549 79.81980103 -14.83237549 79.81980103 -14.625 77.8125 C-14.48401157 76.42311605 -14.34322564 75.03371154 -14.20263672 73.64428711 C-13.92816832 70.94534786 -13.64883266 68.24704191 -13.3671875 65.54882812 C-13.07406593 62.71583934 -12.79640467 59.88255684 -12.53125 57.046875 C-10.61853939 37.59483853 -5.65555162 18.65748989 0 0 Z " fill="#8BC0FF" transform="translate(178,134)"/>
<path d="M0 0 C0 23.76 0 47.52 0 72 C-6.70413231 68.16906725 -11.46620747 64.22835593 -17 59 C-17.6084375 58.45601563 -18.216875 57.91203125 -18.84375 57.3515625 C-29.89252085 47.0845443 -37.02302312 33.15484279 -44 20 C-44.87785156 18.38544922 -44.87785156 18.38544922 -45.7734375 16.73828125 C-48.35060716 11.8615928 -48.35060716 11.8615928 -49 10 C-48.67 9.01 -48.34 8.02 -48 7 C-45.94970703 6.23217773 -45.94970703 6.23217773 -43.2578125 5.68359375 C-42.27296875 5.47669922 -41.288125 5.26980469 -40.2734375 5.05664062 C-38.71496094 4.75016602 -38.71496094 4.75016602 -37.125 4.4375 C-36.1246875 4.22931641 -35.124375 4.02113281 -34.09375 3.80664062 C-32.06255899 3.38806832 -30.02893099 2.98116716 -27.99316406 2.58544922 C-26.08465796 2.21215414 -24.17969705 1.8198868 -22.28027344 1.40283203 C-14.46279999 -0.22688328 -8.42774038 0 0 0 Z " fill="#8BC0FF" transform="translate(239,402)"/>
<path d="M0 0 C0 23.76 0 47.52 0 72 C-16.13841093 72 -16.13841093 72 -24.5625 70.1875 C-25.45291992 70.00517822 -26.34333984 69.82285645 -27.26074219 69.63500977 C-29.02626339 69.27036346 -30.79049927 68.89942394 -32.55322266 68.52148438 C-34.76495991 68.05009436 -36.97995528 67.60611395 -39.19921875 67.171875 C-40.95685547 66.80835937 -40.95685547 66.80835937 -42.75 66.4375 C-43.75546875 66.22996094 -44.7609375 66.02242188 -45.796875 65.80859375 C-46.52390625 65.54175781 -47.2509375 65.27492188 -48 65 C-49 62 -49 62 -48.07885742 59.58666992 C-47.59263916 58.64412354 -47.1064209 57.70157715 -46.60546875 56.73046875 C-46.06696289 55.68318604 -45.52845703 54.63590332 -44.97363281 53.55688477 C-44.38420898 52.44498779 -43.79478516 51.33309082 -43.1875 50.1875 C-42.59163086 49.05562256 -41.99576172 47.92374512 -41.38183594 46.75756836 C-34.65311331 34.18761531 -26.88129016 23.32622631 -17 13 C-16.40574219 12.35417969 -15.81148437 11.70835938 -15.19921875 11.04296875 C-4.73366013 0 -4.73366013 0 0 0 Z " fill="#8BC0FF" transform="translate(239,38)"/>
<path d="M0 0 C13.51460008 0 13.51460008 0 18.98046875 0.98828125 C20.75647461 1.30635742 20.75647461 1.30635742 22.56835938 1.63085938 C23.76267578 1.85580078 24.95699219 2.08074219 26.1875 2.3125 C27.39341797 2.52583984 28.59933594 2.73917969 29.84179688 2.95898438 C36.45912617 4.16969181 42.68214522 5.68594148 49 8 C43.47494645 27.08654863 30.56581366 44.82334295 17 59 C16.10861328 59.96873047 16.10861328 59.96873047 15.19921875 60.95703125 C10.97623684 65.41300527 6.29870041 68.89582573 1 72 C0.67 72 0.34 72 0 72 C0 48.24 0 24.48 0 0 Z " fill="#3897FF" transform="translate(273,402)"/>
<path d="M0 0 C6.70413231 3.83093275 11.46620747 7.77164407 17 13 C17.6084375 13.54398438 18.216875 14.08796875 18.84375 14.6484375 C29.89252085 24.9154557 37.02302312 38.84515721 44 52 C44.58523438 53.07636719 45.17046875 54.15273437 45.7734375 55.26171875 C48.35060716 60.1384072 48.35060716 60.1384072 49 62 C48.67 62.99 48.34 63.98 48 65 C45.32371631 65.83576253 42.80166758 66.46020122 40.0625 67 C39.25925293 67.16661133 38.45600586 67.33322266 37.62841797 67.50488281 C35.08894248 68.02217422 32.54573907 68.51454028 30 69 C28.80141357 69.23299805 28.80141357 69.23299805 27.57861328 69.47070312 C25.26347411 69.91405827 22.94569055 70.33676412 20.625 70.75 C19.93801025 70.87761719 19.25102051 71.00523438 18.54321289 71.13671875 C12.16064237 72.21040811 6.73510764 72 0 72 C0 48.24 0 24.48 0 0 Z " fill="#3897FF" transform="translate(273,38)"/>
<path d="M0 0 C0.27561768 0.60247559 0.55123535 1.20495117 0.83520508 1.82568359 C7.61391374 16.55131375 15.00598563 30.50897845 24 44 C5.18374216 40.67340305 -14.93615415 28.4303554 -30 17 C-28.74057958 13.22173874 -27.67534685 12.98614404 -24.23046875 11.15234375 C-23.25916016 10.62962891 -22.28785156 10.10691406 -21.28710938 9.56835938 C-20.26423828 9.03017578 -19.24136719 8.49199219 -18.1875 7.9375 C-16.6705957 7.12442383 -16.6705957 7.12442383 -15.12304688 6.29492188 C-12.42174109 4.85053564 -9.71638795 3.41580288 -7 2 C-6.29528564 1.61400635 -5.59057129 1.2280127 -4.86450195 0.83032227 C-3 0 -3 0 0 0 Z " fill="#8BC0FF" transform="translate(159,422)"/>
<path d="M0 0 C-0.38929688 0.51304688 -0.77859375 1.02609375 -1.1796875 1.5546875 C-10.51655475 14.3337178 -17.57726274 28.58074217 -24 43 C-27.51214205 42.42177914 -30.29342152 41.52185901 -33.43359375 39.85546875 C-34.24763672 39.42556641 -35.06167969 38.99566406 -35.90039062 38.55273438 C-36.73763672 38.10220703 -37.57488281 37.65167969 -38.4375 37.1875 C-39.68756836 36.52911133 -39.68756836 36.52911133 -40.96289062 35.85742188 C-45.48384237 33.45220407 -49.79970414 30.92996248 -54 28 C-52.58886936 23.76660809 -49.52567739 22.51615707 -45.875 20.3125 C-45.1528833 19.87115723 -44.4307666 19.42981445 -43.68676758 18.97509766 C-33.34922975 12.71956195 -22.85188292 7.21930032 -11.75 2.4375 C-10.92717529 2.07833496 -10.10435059 1.71916992 -9.2565918 1.34912109 C-8.48613525 1.02637207 -7.71567871 0.70362305 -6.921875 0.37109375 C-6.23706055 0.08161865 -5.55224609 -0.20785645 -4.84667969 -0.50610352 C-3 -1 -3 -1 0 0 Z " fill="#8BC0FF" transform="translate(183,47)"/>
<path d="M0 0 C5.66145176 0.97439321 10.57303884 3.21063415 15.8125 5.5 C16.83625732 5.94706299 17.86001465 6.39412598 18.91479492 6.85473633 C31.38346253 12.39018007 43.05702266 18.81907223 54 27 C52.74057958 30.77826126 51.67534685 31.01385596 48.23046875 32.84765625 C47.25916016 33.37037109 46.28785156 33.89308594 45.28710938 34.43164062 C43.75280273 35.23891602 43.75280273 35.23891602 42.1875 36.0625 C41.17623047 36.60455078 40.16496094 37.14660156 39.12304688 37.70507812 C36.42174109 39.14946436 33.71638795 40.58419712 31 42 C30.29528564 42.38599365 29.59057129 42.7719873 28.86450195 43.16967773 C27 44 27 44 24 44 C23.58657349 43.09628662 23.58657349 43.09628662 23.16479492 42.17431641 C16.38608626 27.44868625 8.99401437 13.49102155 0 0 Z " fill="#3997FF" transform="translate(329,46)"/>
<path d="M0 0 C3.51214205 0.57822086 6.29342152 1.47814099 9.43359375 3.14453125 C10.24763672 3.57443359 11.06167969 4.00433594 11.90039062 4.44726562 C12.73763672 4.89779297 13.57488281 5.34832031 14.4375 5.8125 C15.27087891 6.25142578 16.10425781 6.69035156 16.96289062 7.14257812 C21.48384237 9.54779593 25.79970414 12.07003752 30 15 C28.58886936 19.23339191 25.52567739 20.48384293 21.875 22.6875 C21.1528833 23.12884277 20.4307666 23.57018555 19.68676758 24.02490234 C9.34922975 30.28043805 -1.14811708 35.78069968 -12.25 40.5625 C-13.07282471 40.92166504 -13.89564941 41.28083008 -14.7434082 41.65087891 C-15.51386475 41.97362793 -16.28432129 42.29637695 -17.078125 42.62890625 C-17.76293945 42.91838135 -18.44775391 43.20785645 -19.15332031 43.50610352 C-21 44 -21 44 -24 43 C-23.61070312 42.48695313 -23.22140625 41.97390625 -22.8203125 41.4453125 C-13.48344525 28.6662822 -6.42273726 14.41925783 0 0 Z " fill="#3997FF" transform="translate(353,422)"/>
</svg>
